<svg width="22" height="22" viewBox="0 0 22 22" fill="none" xmlns="http://www.w3.org/2000/svg">
<path d="M17.9688 3.125H15.625V1.17188C15.625 0.524658 15.1003 0 14.4531 0H1.17188C0.524658 0 0 0.524658 0 1.17188V20.7031C0 21.3503 0.524658 21.875 1.17188 21.875H14.4531C15.1003 21.875 15.625 21.3503 15.625 20.7031V18.647L19.5608 16.8903C20.9666 16.2628 21.875 14.8627 21.875 13.3232V7.03125C21.875 4.87734 20.1227 3.125 17.9688 3.125ZM18.75 13.3232C18.7499 13.4741 18.7061 13.6218 18.624 13.7484C18.5419 13.8749 18.4249 13.9751 18.2872 14.0367L15.625 15.2249V6.25H17.9688C18.3995 6.25 18.75 6.60049 18.75 7.03125V13.3232ZM10.1562 17.1875C9.7248 17.1875 9.375 16.8377 9.375 16.4062V5.46875C9.375 5.0373 9.7248 4.6875 10.1562 4.6875C10.5877 4.6875 10.9375 5.0373 10.9375 5.46875V16.4062C10.9375 16.8377 10.5877 17.1875 10.1562 17.1875ZM5.46875 17.1875C5.0373 17.1875 4.6875 16.8377 4.6875 16.4062V5.46875C4.6875 5.0373 5.0373 4.6875 5.46875 4.6875C5.9002 4.6875 6.25 5.0373 6.25 5.46875V16.4062C6.25 16.8377 5.9002 17.1875 5.46875 17.1875Z" fill="white"/>
</svg>
