<svg width="14" height="14" viewBox="0 0 14 14" fill="none" xmlns="http://www.w3.org/2000/svg">
<path d="M0 11.0824V12.25C0 13.2152 2.35156 14 5.25 14C8.14844 14 10.5 13.2152 10.5 12.25V11.0824C9.3707 11.8781 7.30625 12.25 5.25 12.25C3.19375 12.25 1.1293 11.8781 0 11.0824ZM8.75 3.5C11.6484 3.5 14 2.71523 14 1.75C14 0.784766 11.6484 0 8.75 0C5.85156 0 3.5 0.784766 3.5 1.75C3.5 2.71523 5.85156 3.5 8.75 3.5ZM0 8.21406V9.625C0 10.5902 2.35156 11.375 5.25 11.375C8.14844 11.375 10.5 10.5902 10.5 9.625V8.21406C9.3707 9.14375 7.30352 9.625 5.25 9.625C3.19648 9.625 1.1293 9.14375 0 8.21406ZM11.375 8.51484C12.9418 8.21133 14 7.64805 14 7V5.83242C13.3656 6.28086 12.4332 6.58711 11.375 6.77578V8.51484ZM5.25 4.375C2.35156 4.375 0 5.35391 0 6.5625C0 7.77109 2.35156 8.75 5.25 8.75C8.14844 8.75 10.5 7.77109 10.5 6.5625C10.5 5.35391 8.14844 4.375 5.25 4.375ZM11.2465 5.91445C12.8871 5.61914 14 5.03945 14 4.375V3.20742C13.0293 3.89375 11.3613 4.26289 9.60586 4.35039C10.4125 4.74141 11.0059 5.26641 11.2465 5.91445Z" fill="#ABABAB"/>
</svg>
