<svg width="113" height="31" viewBox="0 0 113 31" fill="none" xmlns="http://www.w3.org/2000/svg">
<path d="M10.2663 21.9478L6.31239 22.1366L6.34628 29.8621H0.276148L0.244141 8.0256H6.21825L6.38206 16.3703L10.2343 16.0437L10.2022 7.54995L16.6659 7.25928V17.6406L16.8297 30.3944L10.3002 30.6134L10.2663 21.9478Z" fill="white"/>
<path d="M28.0475 30.3132L19.0439 30.2377L19.1343 15.2377L20.0023 14.5752L27.7726 14.3865L27.6822 18.4427L23.3405 18.4673L23.2934 20.5077L26.6071 20.4831L26.5619 24.2336L23.0882 24.1826L23.1108 26.3249L28.1943 26.1721L28.0475 30.3132Z" fill="white"/>
<path d="M38.6287 25.7474V30.4926L29.6478 29.9811L29.5781 14.9829L37.9434 14.2676L38.1034 18.6296L33.9613 18.707L33.7579 26.0532L38.6287 25.7474Z" fill="white"/>
<path d="M44.091 14.5753L44.1833 20.8494L46.5142 18.9619L46.6272 14.5225L51.2683 14.8547L50.9011 20.2378L48.1598 22.1253L50.9708 23.5032L51.931 30.1869L47.1261 30.4926L46.8738 26.0797L44.3603 24.1921L44.5203 30.2114L39.9715 30.3907L39.7832 14.6508L44.091 14.5753Z" fill="white"/>
<path d="M56.5402 7.66133L67.837 7.44238V13.7825L60.0667 13.892V23.6598L63.2015 23.4711L63.0697 17.7142L68.9478 17.5254L68.3265 30.0981L54.0926 30.5096L53.4072 11.8516L56.5402 7.66133Z" fill="white"/>
<path d="M81.4382 14.5225L82.0558 28.2729L80.2954 30.0075L71.4274 30.3398L70.582 29.4715L70.6517 14.9377L74.6733 14.8603L74.8616 25.4983L77.6275 25.0849L77.4674 14.5753L81.4382 14.5225Z" fill="white"/>
<path d="M88.2026 14.3977L88.2929 30.1112L83.746 30.4415L83.5859 14.5997L88.2026 14.3977Z" fill="white"/>
<path d="M101.64 17.533L101.365 26.6156L98.7294 30.1604L90.5016 30.032L90.2041 14.6507L98.4545 14.345L101.64 17.533ZM97.3211 25.5945L97.2985 18.9882L94.6249 18.7391L94.6004 25.9588L97.3211 25.5945Z" fill="white"/>
<path d="M112.107 30.3132L103.104 30.2377L103.194 15.2377L104.064 14.5752L111.834 14.3865L111.742 18.4427L107.4 18.4673L107.353 20.5077L110.669 20.4831L110.622 24.2336L107.148 24.1826L107.17 26.3249L112.254 26.1721L112.107 30.3132Z" fill="white"/>
<path d="M90.2721 7.80097C90.3238 8.97487 89.9082 10.1213 89.1168 10.988C88.7249 11.4171 88.2525 11.7647 87.7266 12.0108C87.2007 12.257 86.6317 12.3969 86.0518 12.4225C84.8809 12.4743 83.7373 12.0577 82.8728 11.2643C82.0082 10.4708 81.4935 9.36558 81.4418 8.19168C81.4048 7.03262 81.804 5.902 82.5602 5.02445C82.6328 4.94118 82.7286 4.88156 82.8352 4.85323C82.9418 4.82491 83.0545 4.82918 83.1587 4.86549C83.2629 4.90179 83.3539 4.96849 83.42 5.05701C83.4862 5.14554 83.5244 5.25185 83.5298 5.36231L83.6164 7.33475C83.617 7.53311 83.6573 7.72933 83.7351 7.91172C83.8129 8.09411 83.9265 8.25894 84.0692 8.39638C84.2118 8.53382 84.3806 8.64107 84.5655 8.71173C84.7504 8.78239 84.9476 8.81502 85.1453 8.80767C85.343 8.80032 85.5373 8.75314 85.7164 8.66895C85.8956 8.58475 86.056 8.46526 86.1881 8.31761C86.3202 8.16995 86.4213 7.99714 86.4854 7.80947C86.5495 7.62181 86.5753 7.42313 86.5611 7.22528C86.4708 5.1981 82.419 5.18866 85.0813 0.888924C85.1422 0.786728 85.2343 0.706881 85.3439 0.661176C85.4536 0.615471 85.575 0.606331 85.6902 0.635105C85.8055 0.66388 85.9084 0.729044 85.9839 0.820974C86.0593 0.912903 86.1033 1.02672 86.1093 1.14562C86.2128 3.52199 90.0989 3.87496 90.2721 7.80097Z" fill="white"/>
</svg>
