<svg width="40" height="40" viewBox="0 0 40 40" fill="none" xmlns="http://www.w3.org/2000/svg">
<path d="M0 6C0 2.68629 2.68629 0 6 0H33.5C36.8137 0 39.5 2.68629 39.5 6V33.5C39.5 36.8137 36.8137 39.5 33.5 39.5H6C2.68629 39.5 0 36.8137 0 33.5V6Z" fill="#D6D6D6"/>
<path d="M27 9H13C11.89 9 11 9.9 11 11V25C11 26.1 11.89 27 13 27H17L20 30L23 27H27C28.1 27 29 26.1 29 25V11C29 9.9 28.1 9 27 9Z" fill="#888888"/>
<path d="M24.298 16.258C24.298 16.894 24.142 17.428 23.83 17.86C23.518 18.28 23.026 18.658 22.354 18.994C21.79 19.282 21.418 19.528 21.238 19.732C21.07 19.936 20.962 20.128 20.914 20.308C20.866 20.476 20.842 20.674 20.842 20.902V21.424H18.718V20.704C18.718 19.624 19.042 18.856 19.69 18.4C19.918 18.232 20.254 18.034 20.698 17.806C21.142 17.578 21.46 17.35 21.652 17.122C21.856 16.882 21.958 16.582 21.958 16.222C21.958 15.85 21.808 15.544 21.508 15.304C21.208 15.052 20.764 14.926 20.176 14.926C19.588 14.926 19.126 15.07 18.79 15.358C18.454 15.634 18.262 16 18.214 16.456H16C16.06 15.412 16.444 14.578 17.152 13.954C17.86 13.318 18.85 13 20.122 13C21.406 13 22.42 13.312 23.164 13.936C23.92 14.56 24.298 15.334 24.298 16.258ZM18.358 23.746C18.358 23.338 18.49 23.002 18.754 22.738C19.03 22.474 19.384 22.342 19.816 22.342C20.26 22.342 20.626 22.474 20.914 22.738C21.202 23.002 21.346 23.338 21.346 23.746C21.346 24.154 21.202 24.496 20.914 24.772C20.626 25.036 20.26 25.168 19.816 25.168C19.384 25.168 19.03 25.036 18.754 24.772C18.49 24.496 18.358 24.154 18.358 23.746Z" fill="white"/>
</svg>
