<svg width="40" height="40" viewBox="0 0 40 40" fill="none" xmlns="http://www.w3.org/2000/svg">
<rect y="0.0612793" width="39.5" height="39.5" rx="6" fill="#D6D6D6"/>
<path d="M26.75 9.31128H12.75C11.64 9.31128 10.75 10.2113 10.75 11.3113V25.3113C10.75 26.4113 11.64 27.3113 12.75 27.3113H16.75L19.75 30.3113L22.75 27.3113H26.75C27.85 27.3113 28.75 26.4113 28.75 25.3113V11.3113C28.75 10.2113 27.85 9.31128 26.75 9.31128ZM20.75 25.3113H18.75V23.3113H20.75V25.3113ZM22.82 17.5613L21.92 18.4813C21.2 19.2113 20.75 19.8113 20.75 21.3113H18.75V20.8113C18.75 19.7113 19.2 18.7113 19.92 17.9813L21.16 16.7213C21.53 16.3613 21.75 15.8613 21.75 15.3113C21.75 14.2113 20.85 13.3113 19.75 13.3113C18.65 13.3113 17.75 14.2113 17.75 15.3113H15.75C15.75 13.1013 17.54 11.3113 19.75 11.3113C21.96 11.3113 23.75 13.1013 23.75 15.3113C23.75 16.1913 23.39 16.9913 22.82 17.5613Z" fill="#888888"/>
</svg>
