<svg width="17" height="21" viewBox="0 0 17 21" fill="none" xmlns="http://www.w3.org/2000/svg">
<path d="M14.9131 7.37553H13.9131V5.47077C13.9131 2.8422 11.6731 0.708862 8.91309 0.708862C6.15309 0.708862 3.91309 2.8422 3.91309 5.47077V7.37553H2.91309C1.81309 7.37553 0.913086 8.23267 0.913086 9.28029V18.8041C0.913086 19.8517 1.81309 20.7089 2.91309 20.7089H14.9131C16.0131 20.7089 16.9131 19.8517 16.9131 18.8041V9.28029C16.9131 8.23267 16.0131 7.37553 14.9131 7.37553ZM8.91309 15.947C7.81309 15.947 6.91309 15.0898 6.91309 14.0422C6.91309 12.9946 7.81309 12.1374 8.91309 12.1374C10.0131 12.1374 10.9131 12.9946 10.9131 14.0422C10.9131 15.0898 10.0131 15.947 8.91309 15.947ZM12.0131 7.37553H5.81309V5.47077C5.81309 3.8422 7.20309 2.51839 8.91309 2.51839C10.6231 2.51839 12.0131 3.8422 12.0131 5.47077V7.37553Z" fill="white"/>
</svg>
