<svg width="20" height="21" viewBox="0 0 20 21" fill="none" xmlns="http://www.w3.org/2000/svg">
<path d="M10.5 5.66699H9V11.667L14.25 14.817L15 13.587L10.5 10.917V5.66699Z" fill="white"/>
<path d="M9.99 0.666992C4.47 0.666992 0 5.14699 0 10.667C0 16.187 4.47 20.667 9.99 20.667C15.52 20.667 20 16.187 20 10.667C20 5.14699 15.52 0.666992 9.99 0.666992ZM10 18.667C5.58 18.667 2 15.087 2 10.667C2 6.24699 5.58 2.66699 10 2.66699C14.42 2.66699 18 6.24699 18 10.667C18 15.087 14.42 18.667 10 18.667Z" fill="white"/>
</svg>
