<svg width="21" height="21" viewBox="0 0 21 21" fill="none" xmlns="http://www.w3.org/2000/svg">
<path d="M10.9902 0.666992C5.47023 0.666992 0.990234 5.14699 0.990234 10.667C0.990234 16.187 5.47023 20.667 10.9902 20.667C16.5102 20.667 20.9902 16.187 20.9902 10.667C20.9902 5.14699 16.5102 0.666992 10.9902 0.666992V0.666992ZM14.6002 7.00699C15.6702 7.00699 16.5302 7.86699 16.5302 8.93699C16.5302 10.007 15.6702 10.867 14.6002 10.867C13.5302 10.867 12.6702 10.007 12.6702 8.93699C12.6602 7.86699 13.5302 7.00699 14.6002 7.00699V7.00699ZM8.60023 5.42699C9.90023 5.42699 10.9602 6.48699 10.9602 7.78699C10.9602 9.08699 9.90023 10.147 8.60023 10.147C7.30024 10.147 6.24023 9.08699 6.24023 7.78699C6.24023 6.47699 7.29024 5.42699 8.60023 5.42699ZM8.60023 14.557V18.307C6.20023 17.557 4.30023 15.707 3.46023 13.347C4.51023 12.227 7.13023 11.657 8.60023 11.657C9.13023 11.657 9.80023 11.737 10.5002 11.877C8.86023 12.747 8.60023 13.897 8.60023 14.557ZM10.9902 18.667C10.7202 18.667 10.4602 18.657 10.2002 18.627V14.557C10.2002 13.137 13.1402 12.427 14.6002 12.427C15.6702 12.427 17.5202 12.817 18.4402 13.577C17.2702 16.547 14.3802 18.667 10.9902 18.667V18.667Z" fill="white"/>
</svg>
