<svg width="20" height="22" viewBox="0 0 20 22" fill="none" xmlns="http://www.w3.org/2000/svg">
<path d="M11.875 0.336914C11.875 0.336914 12.8 2.98691 12.8 5.13691C12.8 7.19691 11.1125 8.86691 8.5375 8.86691C5.95 8.86691 4 7.19691 4 5.13691L4.0375 4.77691C1.5125 7.17691 0 10.2869 0 13.6669C0 18.0869 4.475 21.6669 10 21.6669C15.525 21.6669 20 18.0869 20 13.6669C20 8.27691 16.7625 3.46691 11.875 0.336914ZM9.6375 18.6669C7.4125 18.6669 5.6125 17.2669 5.6125 15.5269C5.6125 13.9069 6.925 12.7669 9.125 12.4069C11.3375 12.0469 13.625 11.1969 14.9 9.82691C15.3875 11.1169 15.6375 12.4769 15.6375 13.8669C15.6375 16.5169 12.95 18.6669 9.6375 18.6669Z" fill="white"/>
</svg>
