<svg width="26" height="26" viewBox="0 0 26 26" fill="none" xmlns="http://www.w3.org/2000/svg">
<path d="M12.375 10.2725V13.5977C13.6494 13.8857 14.7822 14.3594 15.9687 14.6865V11.3564C14.6992 11.0732 13.5566 10.5996 12.375 10.2725V10.2725ZM23.2783 4.2666C21.6035 5.04296 19.543 5.82421 17.5654 5.82421C14.9531 5.82421 12.79 4.125 9.49902 4.125C8.27832 4.125 7.18945 4.33984 6.17871 4.71093C6.31543 4.35449 6.37891 3.96875 6.35449 3.55859C6.2666 2.17187 5.12891 1.05859 3.7373 0.999996C2.1748 0.936519 0.890625 2.18652 0.890625 3.73437C0.890625 4.66211 1.35449 5.48242 2.0625 5.97558V24.8281C2.0625 25.4775 2.58496 26 3.23438 26H4.01562C4.66504 26 5.1875 25.4775 5.1875 24.8281V20.2187C6.56934 19.6279 8.29297 19.1396 10.7734 19.1396C13.3906 19.1396 15.5488 20.8389 18.8398 20.8389C21.1934 20.8389 23.0732 20.043 24.8213 18.8418C25.2461 18.5488 25.4951 18.0703 25.4951 17.5527V5.68261C25.5 4.54492 24.3135 3.78808 23.2783 4.2666V4.2666ZM8.78125 16.8936C7.52148 17.0254 6.33984 17.2939 5.1875 17.7041V14.2617C6.4668 13.8076 7.50684 13.5293 8.78125 13.4121V16.8936ZM23.1562 10.3262C22.0039 10.8047 20.8955 11.2783 19.5625 11.4932V14.9648C20.7734 14.7988 22.0723 14.3887 23.1562 13.6953V17.1377C21.9307 17.9238 20.7881 18.3437 19.5625 18.4609V14.9648C18.2441 15.1455 17.2236 15.0381 15.9687 14.6914V17.9824C14.8018 17.6211 13.6592 17.167 12.375 16.9424V13.5977C11.4131 13.3828 10.3828 13.2656 8.78125 13.4121V9.99414C7.6875 10.1455 6.60352 10.4922 5.1875 11.0146V7.57226C6.80859 6.97656 7.63379 6.60546 8.78125 6.49804V9.99414C10.0996 9.81347 11.1445 9.93066 12.375 10.2725V6.98144C13.5322 7.34277 14.6797 7.79687 15.9687 8.02148V11.3613C17.126 11.6201 18.293 11.6982 19.5625 11.4932V7.98242C20.8809 7.74804 22.1162 7.31836 23.1562 6.88378V10.3262Z" fill="white"/>
</svg>
