<svg width="25" height="25" viewBox="0 0 25 25" fill="none" xmlns="http://www.w3.org/2000/svg">
<path d="M0 19.79V21.875C0 23.5986 4.19922 25 9.375 25C14.5508 25 18.75 23.5986 18.75 21.875V19.79C16.7334 21.2109 13.0469 21.875 9.375 21.875C5.70313 21.875 2.0166 21.2109 0 19.79ZM15.625 6.25C20.8008 6.25 25 4.84863 25 3.125C25 1.40137 20.8008 0 15.625 0C10.4492 0 6.25 1.40137 6.25 3.125C6.25 4.84863 10.4492 6.25 15.625 6.25ZM0 14.668V17.1875C0 18.9111 4.19922 20.3125 9.375 20.3125C14.5508 20.3125 18.75 18.9111 18.75 17.1875V14.668C16.7334 16.3281 13.042 17.1875 9.375 17.1875C5.70801 17.1875 2.0166 16.3281 0 14.668ZM20.3125 15.2051C23.1104 14.6631 25 13.6572 25 12.5V10.415C23.8672 11.2158 22.2021 11.7627 20.3125 12.0996V15.2051ZM9.375 7.8125C4.19922 7.8125 0 9.56055 0 11.7188C0 13.877 4.19922 15.625 9.375 15.625C14.5508 15.625 18.75 13.877 18.75 11.7188C18.75 9.56055 14.5508 7.8125 9.375 7.8125ZM20.083 10.5615C23.0127 10.0342 25 8.99902 25 7.8125V5.72754C23.2666 6.95313 20.2881 7.6123 17.1533 7.76855C18.5937 8.4668 19.6533 9.4043 20.083 10.5615Z" fill="white"/>
</svg>
