<svg width="19" height="24" viewBox="0 0 19 24" fill="none" xmlns="http://www.w3.org/2000/svg">
<path d="M0.927738 11.7417L2.91162 12.6235C3.10233 12.7083 3.30807 12.754 3.51672 12.7579C3.72538 12.7619 3.9327 12.724 4.12647 12.6465L4.75049 12.3965C4.9686 12.3092 5.16423 12.1739 5.32282 12.0006C5.48142 11.8273 5.59889 11.6205 5.66651 11.3955L6.1167 9.89893C6.15767 9.73489 6.23365 9.58165 6.33943 9.44975C6.44521 9.31784 6.57827 9.21039 6.7295 9.13477L7.80957 8.59375V11.0513C7.80966 11.4866 7.68851 11.9133 7.45971 12.2836C7.23091 12.654 6.9035 12.9532 6.51416 13.1479L3.72022 14.5469C3.07162 14.8715 2.52623 15.3704 2.14514 15.9875C1.76405 16.6046 1.5623 17.3157 1.5625 18.041V18.75H17.1807V9.375C17.1807 4.19922 12.9854 0 7.80957 0H0.585941C0.430541 0 0.281505 0.0617324 0.171621 0.171617C0.0617361 0.281502 3.52378e-06 0.430537 3.52378e-06 0.585938C-7.59749e-05 0.714432 0.0298529 0.84117 0.0874059 0.956055L0.781254 2.34375L0.3418 2.7832C0.23307 2.89231 0.146917 3.02178 0.0882679 3.16422C0.0296191 3.30665 -0.000374203 3.45925 3.52378e-06 3.61328V10.313C-0.000181815 10.6154 0.0873721 10.9113 0.252046 11.1649C0.416721 11.4185 0.65144 11.6189 0.927738 11.7417V11.7417ZM2.53907 4.6875C2.73221 4.6875 2.92102 4.74477 3.08162 4.85208C3.24221 4.95939 3.36738 5.1119 3.44129 5.29035C3.51521 5.46879 3.53455 5.66515 3.49686 5.85458C3.45918 6.04402 3.36617 6.21802 3.2296 6.3546C3.09303 6.49117 2.91902 6.58418 2.72958 6.62186C2.54015 6.65954 2.3438 6.6402 2.16535 6.56629C1.98691 6.49237 1.83439 6.36721 1.72708 6.20661C1.61978 6.04602 1.5625 5.85721 1.5625 5.66406C1.5625 5.40506 1.66539 5.15667 1.84853 4.97353C2.03167 4.79039 2.28007 4.6875 2.53907 4.6875V4.6875ZM17.9688 20.3125H0.781254C0.574053 20.3125 0.375339 20.3948 0.228826 20.5413C0.0823136 20.6878 3.52378e-06 20.8865 3.52378e-06 21.0938V22.6562C3.52378e-06 22.8635 0.0823136 23.0622 0.228826 23.2087C0.375339 23.3552 0.574053 23.4375 0.781254 23.4375H17.9688C18.176 23.4375 18.3747 23.3552 18.5212 23.2087C18.6677 23.0622 18.75 22.8635 18.75 22.6562V21.0938C18.75 20.8865 18.6677 20.6878 18.5212 20.5413C18.3747 20.3948 18.176 20.3125 17.9688 20.3125Z" fill="white"/>
</svg>
